<?xml version="1.0" encoding="UTF-8" standalone="no"?>
<!-- Created with Inkscape (http://www.inkscape.org/) -->

<svg
   xmlns:dc="http://purl.org/dc/elements/1.1/"
   xmlns:cc="http://creativecommons.org/ns#"
   xmlns:rdf="http://www.w3.org/1999/02/22-rdf-syntax-ns#"
   xmlns:svg="http://www.w3.org/2000/svg"
   xmlns="http://www.w3.org/2000/svg"
   xmlns:xlink="http://www.w3.org/1999/xlink"
   xmlns:sodipodi="http://sodipodi.sourceforge.net/DTD/sodipodi-0.dtd"
   xmlns:inkscape="http://www.inkscape.org/namespaces/inkscape"
   width="600"
   height="600"
   id="svg2"
   version="1.1"
   inkscape:version="0.48.4 r9939"
   sodipodi:docname="another_fine_purchase.svg"
   inkscape:export-filename="C:\Code\LudumDare\Monopoly\Assets\BGs\another_fine_purchase.png"
   inkscape:export-xdpi="128"
   inkscape:export-ydpi="128">
  <defs
     id="defs4" />
  <sodipodi:namedview
     id="base"
     pagecolor="#ffffff"
     bordercolor="#666666"
     borderopacity="1.0"
     inkscape:pageopacity="0.0"
     inkscape:pageshadow="2"
     inkscape:zoom="0.98994949"
     inkscape:cx="163.07013"
     inkscape:cy="248.77237"
     inkscape:document-units="px"
     inkscape:current-layer="layer1"
     showgrid="false"
     inkscape:object-paths="false"
     inkscape:window-width="1920"
     inkscape:window-height="1003"
     inkscape:window-x="1357"
     inkscape:window-y="-9"
     inkscape:window-maximized="1" />
  <metadata
     id="metadata7">
    <rdf:RDF>
      <cc:Work
         rdf:about="">
        <dc:format>image/svg+xml</dc:format>
        <dc:type
           rdf:resource="http://purl.org/dc/dcmitype/StillImage" />
        <dc:title></dc:title>
      </cc:Work>
    </rdf:RDF>
  </metadata>
  <g
     inkscape:label="Layer 1"
     inkscape:groupmode="layer"
     id="layer1"
     transform="translate(0,-452.36218)">
    <path
       sodipodi:type="star"
       style="fill:#d3b1b1;stroke:none;stroke-width:0.80000000999999998;stroke-linecap:butt;stroke-linejoin:round;stroke-miterlimit:4;stroke-opacity:1;stroke-dasharray:none;fill-opacity:1"
       id="path3772"
       sodipodi:sides="12"
       sodipodi:cx="184.85793"
       sodipodi:cy="159.57349"
       sodipodi:r1="294.8205"
       sodipodi:r2="350.97678"
       sodipodi:arg1="0.8240754"
       sodipodi:arg2="1.0858748"
       inkscape:flatsided="false"
       inkscape:rounded="0.23"
       inkscape:randomized="0"
       d="m 385.11057,375.94817 c -17.05246,15.78188 -16.09264,83.30789 -36.6487,94.13852 -20.55607,10.83063 -75.7086,-28.14219 -98.36741,-23.00091 -22.65881,5.14128 -55.59057,64.10043 -78.80797,63.202 C 148.0691,509.38934 119.79202,448.06163 97.598279,441.18471 75.404532,434.30778 17.405211,468.90202 -2.2524246,456.51526 -21.910059,444.12849 -15.734868,376.8786 -31.516755,359.82613 c -15.781887,-17.05246 -83.307885,-16.09264 -94.138525,-36.6487 -10.83063,-20.55607 28.142196,-75.7086 23.00091,-98.3674 -5.14128,-22.65882 -64.10043,-55.59058 -63.202,-78.80798 0.89844,-23.21739 62.22615,-51.494464 69.103076,-73.68821 6.876923,-22.193747 -27.717316,-80.1930685 -15.330546,-99.850704 12.386757,-19.657634 79.636656,-13.482443 96.689119,-29.26433 17.0524634,-15.781887 16.09263804,-83.307886 36.648706,-94.138516 20.556066,-10.83063 75.708593,28.14219 98.367405,23.0009 22.65881,-5.14128 55.59057,-64.10043 78.80797,-63.20199 23.21739,0.89843 51.49447,62.22614 73.68821,69.10307 22.19375,6.87692 80.19307,-27.71731 99.85071,-15.33055 19.65763,12.38676 13.48244,79.636657 29.26433,96.68912 15.78188,17.052463 83.30789,16.092638 94.13852,36.6487058 10.83063,20.5560662 -28.1422,75.7085922 -23.00091,98.3674012 5.14128,22.658813 64.10043,55.590583 63.202,78.807973 -0.89844,23.21739 -62.22615,51.49447 -69.10308,73.68821 -6.87692,22.19375 27.71732,80.19307 15.33055,99.85071 -12.38676,19.65763 -79.63666,13.48244 -96.68912,29.26433 z"
       transform="matrix(0.82020291,0,0,0.82668445,146.07856,620.52962)" />
    <text
       xml:space="preserve"
       style="font-size:100px;font-style:normal;font-variant:normal;font-weight:normal;font-stretch:normal;text-align:start;line-height:125%;letter-spacing:5.13867897px;word-spacing:0px;writing-mode:lr-tb;text-anchor:start;fill:#550000;fill-opacity:1;stroke:#e4e1b5;stroke-width:3.39560293999999980;stroke-miterlimit:4;stroke-opacity:1;stroke-dasharray:none;font-family:Showcard Gothic;-inkscape-font-specification:Showcard Gothic"
       id="text2985"
       sodipodi:linespacing="125%"
       transform="matrix(0.88349555,0,0,0.88349555,25.968201,92.717035)"><textPath
         xlink:href="#path2991"
         id="textPath2994"
         style="font-size:80px;font-style:normal;font-variant:normal;font-weight:normal;font-stretch:normal;text-align:start;line-height:125%;letter-spacing:5.13867897px;writing-mode:lr-tb;text-anchor:start;fill:#550000;stroke:#e4e1b5;stroke-width:3.39560293999999980;stroke-miterlimit:4;stroke-opacity:1;stroke-dasharray:none;font-family:Showcard Gothic;-inkscape-font-specification:Showcard Gothic">ANOTHER   FINE   PURCHASE</textPath></text>
    <path
       style="fill:none;fill-rule:evenodd;stroke:#000000;stroke-width:0.84345912999999983px;stroke-linecap:butt;stroke-linejoin:miter;stroke-opacity:0"
       d="m 111.03852,752.34687 c 0,-112.17949 86.8691,-203.11893 194.02756,-203.11893 107.15845,0 194.02756,90.93944 194.02756,203.11893 0,112.17949 -86.86911,203.11893 -194.02756,203.11893 -107.15846,0 -194.02756,-90.93944 -194.02756,-203.11893 z"
       id="path2991"
       inkscape:connector-curvature="0" />
    <path
       sodipodi:type="star"
       style="fill:none;stroke:#000000;stroke-width:0.80000001;stroke-linecap:butt;stroke-linejoin:round;stroke-miterlimit:4;stroke-opacity:0;stroke-dasharray:none"
       id="path3768"
       sodipodi:sides="12"
       sodipodi:cx="22.223356"
       sodipodi:cy="12.091219"
       sodipodi:r1="308.15614"
       sodipodi:r2="154.07807"
       sodipodi:arg1="0.74134316"
       sodipodi:arg2="1.0031425"
       inkscape:flatsided="false"
       inkscape:rounded="0"
       inkscape:randomized="0"
       d="m 249.50767,220.18264 -144.44342,-78.17823 9.94739,163.94142 -86.002562,-139.92604 -73.356018,146.95113 -4.51738,-164.18079 -137.00374,90.58541 78.17823,-144.44343 -163.94143,9.94739 139.92605,-86.00256 -146.95114,-73.356018 164.1808,-4.517379 -90.58541,-137.003743 144.443425,78.17823 -9.947392,-163.94142 86.002562,139.92604 73.356018,-146.95113 4.51738,164.18079 L 230.31478,-215.1931 152.13655,-70.749672 316.07797,-80.697064 176.15192,5.3054975 323.10306,78.661516 158.92227,83.178895 z"
       transform="translate(0,452.36218)" />
  </g>
  <g
     inkscape:groupmode="layer"
     id="layer2"
     inkscape:label="Layer" />
</svg>
